<svg width="127" height="58" viewBox="0 0 127 58" fill="none" xmlns="http://www.w3.org/2000/svg">
<path d="M122.736 28.2656C122.63 28.3301 122.492 28.3034 122.414 28.2056C122.214 27.9475 122.009 27.6939 121.824 27.4247C112.971 14.4668 100.834 6.50734 85.364 3.89128C63.6725 0.225229 46.2877 7.87321 32.4154 24.4683C31.5857 25.4627 30.6469 26.3859 29.6636 27.2334C29.1943 27.6383 27.8039 28.7839 26.4136 27.665C24.7229 26.3036 26.3224 23.6764 27.3879 22.5819C30.4712 19.4164 33.4721 16.124 36.8489 13.2944C44.4057 6.96782 53.037 2.71449 62.7916 0.892589C68.7066 -0.213009 74.6417 -0.224132 80.5991 0.489947C88.5652 1.4465 96.0552 3.84011 102.971 7.92215C110.94 12.6248 117.418 18.8803 122.274 26.7796C122.501 27.1467 122.659 27.5538 122.837 27.952C122.888 28.0676 122.845 28.2011 122.739 28.2656H122.736Z" fill="#DADFD9"/>
<path d="M4.58034 57.2489C4.58034 57.2489 1.27244 57.2311 0 57.2311C0.320335 56.2946 11.452 24.9463 11.452 24.9463H16.406C16.406 24.9463 27.6489 56.6661 27.8357 57.2267C26.3675 57.2267 23.2398 57.1866 23.2398 57.1866L19.883 47.8257L7.77256 47.8235L4.58034 57.2489ZM13.9056 29.3598C12.2773 34.1715 10.64 39.2434 8.98049 44.1508H18.7774C17.129 39.2301 15.5162 34.1759 13.9056 29.3598Z" fill="#DADFD9"/>
<path d="M71.4717 47.6764C71.485 47.8254 71.5251 47.9722 71.5562 48.1146C72.5462 52.5948 77.0954 55.0285 82.2274 53.5469C83.6288 53.0798 85.0703 52.1877 86.2649 51.3469C86.5074 51.7762 86.9278 52.557 87.2415 53.1154L88.0935 54.4545L86.6008 55.5579C81.0973 59.0749 73.8631 58.2763 69.8055 53.7872C64.7714 48.2147 66.026 36.2756 75.3157 33.942C82.4432 32.1535 88.2381 36.4758 88.3649 43.7967C88.3782 44.5553 88.3671 45.3139 88.3671 46.2082H86.8389C82.105 46.2082 77.369 46.2437 72.6329 46.1837H71.3916C71.3938 46.1837 71.3894 46.8177 71.4717 47.6764ZM83.9047 42.9781C83.9492 39.3499 81.6245 36.9296 78.2566 36.9474C74.6817 36.9674 71.5651 39.7859 71.6497 42.9781H83.9047Z" fill="#DADFD9"/>
<path d="M112.901 53.5258H126.782V57.2319H106.859V54.5202C111.05 49.4082 116.194 43.0905 120.414 37.7983H106.859V33.9609H126.551V36.6882C126.549 36.6882 114.705 51.2901 112.901 53.5258Z" fill="#DADFD9"/>
<path d="M62.6384 39.2662C60.5473 37.7491 58.3406 37.0172 55.8424 37.3931C54.303 37.6245 53.253 38.4921 53.0551 39.7556C52.8281 41.186 53.7291 41.9979 54.8302 42.5652C56.0204 43.1792 57.2973 43.6285 58.5119 44.2047C59.7932 44.812 61.1368 45.3526 62.2914 46.1534C65.973 48.7072 65.8929 53.7858 62.1245 56.2328C58.9701 58.2794 55.531 58.1415 52.143 56.958C50.6548 56.4375 49.32 55.4876 47.7695 54.6534C48.5926 53.4232 49.2466 52.4511 49.9184 51.4456C50.6859 51.9394 51.3688 52.4311 52.1007 52.8382C53.7914 53.7747 55.6066 54.2307 57.5375 53.9104C58.1626 53.8058 58.8166 53.57 59.3394 53.2208C60.8966 52.1797 60.9945 50.2354 59.4662 49.1654C58.3784 48.4046 57.0926 47.9286 55.8958 47.3235C54.2897 46.5115 52.5523 45.8776 51.1041 44.8454C47.4981 42.2738 47.8207 37.1685 51.6158 34.8994C55.2796 32.706 61.3571 33.2711 64.3135 36.1296C63.7729 37.1395 63.2212 38.174 62.6384 39.2662Z" fill="#DADFD9"/>
<path d="M43.9782 39.2652C41.8872 37.7481 39.6782 37.0162 37.1823 37.3922C35.6429 37.6235 34.5929 38.4911 34.3949 39.7546C34.168 41.185 35.0689 41.997 36.1701 42.5642C37.3602 43.1782 38.6371 43.6276 39.8517 44.2037C41.133 44.811 42.4767 45.3516 43.6312 46.1524C47.3128 48.7062 47.2327 53.7848 43.4644 56.2318C40.31 58.2784 36.8708 58.1405 33.4828 56.957C31.9946 56.4365 30.6599 55.4866 29.1094 54.6524C29.9325 53.4222 30.5865 52.4501 31.2583 51.4446C32.0258 51.9385 32.7087 52.4301 33.4406 52.8372C35.1312 53.7737 36.9465 54.2297 38.8774 53.9094C39.5025 53.8049 40.1565 53.569 40.6792 53.2198C42.2364 52.1787 42.3343 50.2345 40.806 49.1645C39.7182 48.4037 38.4324 47.9276 37.2356 47.3225C35.6295 46.5106 33.8921 45.8766 32.444 44.8444C28.838 42.2728 29.1605 37.1675 32.9556 34.8984C36.6194 32.705 42.6969 33.2701 45.6533 36.1286C45.1128 37.1386 44.5611 38.173 43.9782 39.2652Z" fill="#DADFD9"/>
<path d="M103.908 37.8711V34.4676C102.444 34.4676 98.3535 34.4898 98.3535 34.4898V27.7539H94.178L94.2002 34.5299H91.0703V37.8689H93.9911C93.9911 37.8689 93.9511 46.073 94.029 49.5389C94.1758 56.0946 99.3901 57.8275 104.269 57.2336V53.4051C100.338 53.4051 98.5648 52.393 98.5648 48.7937V37.8689C98.567 37.8667 102.311 37.8711 103.908 37.8711Z" fill="#DADFD9"/>
</svg>
