<svg width="40" height="38" viewBox="0 0 40 38" fill="none" xmlns="http://www.w3.org/2000/svg">
<path d="M26.7857 0.849999L26.7852 0.850001C25.8457 0.853054 24.9461 1.23522 24.2826 1.91209C23.6193 2.58886 23.2458 3.50525 23.2429 4.46107V4.46154C23.2429 5.42202 23.6186 6.29618 24.2237 6.94412L21.2073 12.0745C20.812 11.9803 20.4076 11.9307 20.0014 11.9269H20C18.3783 11.9269 16.932 12.6511 15.914 13.7819L15.3413 13.3425L15.2198 13.2493L15.1291 13.3727L14.3149 14.4804L14.2279 14.5987L14.3443 14.6882L14.9836 15.1794C14.6192 15.9372 14.4268 16.7695 14.4214 17.6144V17.6154C14.4214 18.4809 14.6303 19.2896 14.9721 20.0216L7.43827 25.1445C6.74353 24.6548 5.91853 24.3906 5.0718 24.3885H5.07143C2.74648 24.3885 0.85 26.3277 0.85 28.6923C0.85 31.0583 2.74651 32.9962 5.07143 32.9962C7.39634 32.9962 9.29286 31.0583 9.29286 28.6923C9.29286 27.8372 9.04409 27.0401 8.61682 26.3695L15.892 21.4212C16.9117 22.5663 18.3657 23.3038 20 23.3038C20.8547 23.3038 21.6533 23.0868 22.3737 22.7354L22.8274 23.3851L22.9151 23.5107L23.0388 23.4204L24.1435 22.6146L24.2628 22.5276L24.1777 22.4069L23.7452 21.7938C24.8519 20.7644 25.5651 19.3031 25.5784 17.6622L33.9496 16.5222C34.4685 17.269 35.3215 17.7654 36.2857 17.7654C37.8629 17.7654 39.15 16.4478 39.15 14.8462C39.15 13.2445 37.8629 11.9269 36.2857 11.9269C34.7085 11.9269 33.4214 13.2445 33.4214 14.8462C33.4214 14.8635 33.4222 14.8802 33.4235 14.8961L25.3231 15.9967C25.1192 15.3055 24.788 14.6597 24.3465 14.0942C23.9101 13.5349 23.3742 13.0649 22.7674 12.7086L25.6182 7.86229C25.983 7.99548 26.3747 8.07308 26.7857 8.07308C28.7374 8.07308 30.3286 6.44538 30.3286 4.46154C30.3286 2.4777 28.7374 0.85 26.7857 0.849999ZM11.0876 12.1962L11.2089 12.2887L11.2994 12.1658L12.1137 11.0595L12.2008 10.9412L12.0842 10.8517L11.7107 10.5648C11.8944 10.1854 12.0071 9.76184 12.0071 9.30769C12.0071 7.70601 10.72 6.38846 9.14286 6.38846C7.56569 6.38846 6.27857 7.70601 6.27857 9.30769C6.27857 10.9094 7.56569 12.2269 9.14286 12.2269C9.67262 12.2269 10.1651 12.0736 10.5896 11.8163L11.0876 12.1962ZM13.1697 11.6809L13.0481 11.5878L12.9576 11.7113L12.1433 12.8218L12.0564 12.9403L12.1731 13.0296L13.2588 13.8604L13.3804 13.9534L13.471 13.8299L14.2852 12.7195L14.3722 12.601L14.2554 12.5116L13.1697 11.6809ZM24.968 23.536L24.8803 23.4104L24.7566 23.5007L23.6519 24.3065L23.533 24.3932L23.6174 24.5137L24.4045 25.638L24.4921 25.7631L24.6156 25.6733L25.7203 24.8703L25.8394 24.7837L25.7551 24.663L24.968 23.536ZM26.5449 25.7886L26.4572 25.6633L26.3336 25.7534L25.2289 26.5593L25.1098 26.6461L25.1945 26.7667L25.9844 27.891L26.0721 28.0158L26.1954 27.926L27.2988 27.123L27.4178 27.0363L27.3334 26.9157L26.5449 25.7886ZM28.1233 28.0415L28.0357 27.916L27.912 28.0061L26.806 28.812L26.6869 28.8987L26.7714 29.0193L27.5613 30.1464L27.6491 30.2717L27.7726 30.1814L28.876 29.3756L28.9946 29.289L28.9105 29.1686L28.1233 28.0415ZM31.5357 29.9269H31.5353C30.9175 29.9286 30.3122 30.0968 29.7802 30.4131L29.6989 30.2969L29.6113 30.1718L29.4878 30.2616L28.3831 31.0647L28.2637 31.1515L28.3486 31.2723L28.5652 31.5804C28.1924 32.1622 27.9933 32.8424 27.9929 33.5384V33.5385C27.9929 35.5223 29.584 37.15 31.5357 37.15C33.4874 37.15 35.0786 35.5223 35.0786 33.5385C35.0786 31.5546 33.4874 29.9269 31.5357 29.9269ZM26.7857 2.53462C27.8319 2.53462 28.6714 3.38676 28.6714 4.46154C28.6714 5.53631 27.8319 6.38846 26.7857 6.38846C25.7395 6.38846 24.9 5.53631 24.9 4.46154C24.9 3.38676 25.7395 2.53462 26.7857 2.53462ZM9.14286 8.07308C9.81448 8.07308 10.35 8.61507 10.35 9.30769C10.35 10.0003 9.81448 10.5423 9.14286 10.5423C8.47123 10.5423 7.93571 10.0003 7.93571 9.30769C7.93571 8.61507 8.47123 8.07308 9.14286 8.07308ZM20 13.6115C22.1713 13.6115 23.9214 15.3928 23.9214 17.6154C23.9214 19.838 22.1713 21.6192 20 21.6192C17.8287 21.6192 16.0786 19.838 16.0786 17.6154C16.0786 15.3928 17.8287 13.6115 20 13.6115ZM36.2857 13.6115C36.9573 13.6115 37.4929 14.1535 37.4929 14.8462C37.4929 15.5388 36.9573 16.0808 36.2857 16.0808C35.6141 16.0808 35.0786 15.5388 35.0786 14.8462C35.0786 14.1535 35.6141 13.6115 36.2857 13.6115ZM5.07143 26.0731C6.49219 26.0731 7.63571 27.2354 7.63571 28.6923C7.63571 30.1492 6.49219 31.3115 5.07143 31.3115C3.65066 31.3115 2.50714 30.1492 2.50714 28.6923C2.50714 27.2354 3.65066 26.0731 5.07143 26.0731ZM31.5357 31.6115C32.5819 31.6115 33.4214 32.4637 33.4214 33.5385C33.4214 34.6132 32.5819 35.4654 31.5357 35.4654C30.4895 35.4654 29.65 34.6132 29.65 33.5385C29.65 32.4637 30.4895 31.6115 31.5357 31.6115Z" fill="white" stroke="#6C7A70" stroke-width="0.3"/>
</svg>
