<svg width="234" height="119" viewBox="0 0 234 119" fill="none" xmlns="http://www.w3.org/2000/svg">
<path d="M0.191406 50.1382H8.49388V31.6024L19.6573 31.6732C30.6821 31.6732 37.1923 25.2308 37.1923 15.9982C37.1923 6.91048 31.0362 0.181641 20.0853 0.181641H0.191406V50.1382ZM8.49388 24.9474V6.83965H18.9428C25.8133 6.83965 28.822 10.2025 28.822 15.9274C28.822 21.6523 25.8133 24.9474 18.9428 24.9474H8.49388Z" fill="#DADFD9"/>
<path d="M53.0019 14.7875C54.1475 14.2825 55.5333 13.9961 57.2055 13.9961H59.9217V21.0822H56.4141C50.4028 21.0822 47.8283 25.1626 47.8283 31.8175V50.1439H39.7383V14.3533H47.6835V19.9889C47.6866 19.9889 49.1309 16.5029 53.0019 14.7875Z" fill="#DADFD9"/>
<path d="M77.647 51.0683C88.0252 51.0683 95.7549 44.0531 95.7549 32.3169C95.7549 20.5068 88.0252 13.4238 77.647 13.4238C67.1273 13.4238 59.3945 20.5068 59.3945 32.3169C59.3976 44.0562 67.1273 51.0683 77.647 51.0683ZM67.5554 32.3169C67.5554 24.5872 70.989 19.5029 77.647 19.5029C84.2311 19.5029 87.5971 24.5841 87.5971 32.3169C87.5971 39.9049 84.2342 44.9123 77.5762 44.9123C70.9891 44.9154 67.5554 39.9049 67.5554 32.3169Z" fill="#DADFD9"/>
<path d="M141.12 13.4953C148.776 13.4953 152.856 18.361 152.856 26.0907V37.8423C147.722 38.3904 144.695 41.3591 144.695 41.3591V28.6683C144.695 23.4423 142.906 19.9347 137.966 19.9347C132.67 19.9347 129.738 23.7287 129.738 29.74V50.1359H121.577V28.736C121.577 24.3692 120.361 19.9347 114.636 19.9347C109.339 19.9347 106.188 23.6578 106.188 31.2428V50.1359H98.1016V14.3514H106.118V19.7622C106.118 19.7622 109.724 12.7501 117.854 13.4891C123.141 13.4891 126.477 15.7619 128.17 20.1656C128.177 20.1718 131.57 13.6 141.12 13.4953Z" fill="#DADFD9"/>
<path d="M182.107 51.0683C191.912 51.0683 198.139 46.4151 198.139 39.403C198.139 32.8189 193.126 30.5985 188.047 29.7424L180.386 28.526C177.38 28.0271 174.516 27.522 174.516 24.1592C174.516 20.6516 177.737 18.9332 181.888 18.9332C186.468 18.9332 189.042 20.8671 189.544 24.4456H196.987C196.341 16.8575 190.188 13.4238 182.03 13.4238C172.794 13.4238 166.925 17.9323 166.925 24.732C166.925 30.2444 170.146 33.6072 176.444 34.6081L184.534 35.8984C187.967 36.4004 190.545 37.1179 190.545 40.1944C190.545 43.2709 187.395 45.559 182.603 45.559C177.734 45.559 173.94 43.6281 173.367 39.6894H165.641C166.503 47.4191 173.303 51.0683 182.107 51.0683Z" fill="#DADFD9"/>
<path d="M217.04 51.0686C225.484 51.0686 232.142 46.129 233.5 39.1877H225.912C224.622 42.6214 222.051 45.1282 217.111 45.1282C210.813 45.1282 207.38 40.9738 207.093 34.3898L234.002 34.3189V31.883C234.002 20.6457 227.274 13.418 216.898 13.418C206.446 13.418 199.219 20.8613 199.219 32.3819C199.219 44.1273 206.446 51.0686 217.04 51.0686ZM207.161 29.3855C207.521 23.445 211.167 19.5062 216.966 19.5062C222.549 19.5062 225.986 23.1555 226.273 29.3146L207.161 29.3855Z" fill="#DADFD9"/>
<path d="M163.915 41.0286V14.3535H155.754V37.8382C155.754 37.8382 160.321 37.986 163.915 41.0286Z" fill="#DADFD9"/>
<path d="M67.2375 104.614C80.0515 104.614 87.1345 97.7439 87.1345 88.9395C87.1345 80.8526 81.6221 77.0586 74.5391 75.913L63.231 74.1237C60.4347 73.6217 56.0002 72.4762 56.0002 67.3241C56.0002 62.3167 60.4348 59.0955 66.8094 59.0955C72.8947 59.0955 76.9012 61.7439 77.7604 66.7513H85.6348C84.7756 57.9499 77.9051 52.9395 66.8834 52.9395C56.1449 52.9395 47.8425 58.3779 47.8425 67.9708C47.8425 74.5549 51.9968 79.8517 59.9389 81.0681L71.2471 82.8574C74.61 83.4301 78.9768 84.8621 78.9768 89.9434C78.9768 94.3102 75.6139 98.3876 67.4531 98.3876C59.8681 98.3876 55.2857 94.8091 54.5713 89.155H46.4844C47.3405 98.3167 54.5682 104.614 67.2375 104.614Z" fill="#DADFD9"/>
<path d="M109.724 104.474C118.67 104.474 125.541 97.6034 125.541 85.8672C125.541 74.0571 118.6 67.1158 109.579 67.1158C109.579 67.1158 101.302 66.6354 97.1966 73.9771V68.0458H89.1836V117.861H97.2705C97.2705 117.861 97.2243 104.092 97.2058 98.2316C97.2058 98.2286 100.362 104.289 109.724 104.474ZM97.1258 85.8641C97.1258 78.2761 100.988 73.2688 107.217 73.2688C113.444 73.2688 117.309 78.1345 117.309 85.8641C117.309 93.5199 113.444 98.3918 107.217 98.3918C100.991 98.3918 97.1258 93.3783 97.1258 85.8641Z" fill="#DADFD9"/>
<path d="M145.128 67.6855H147.847V74.7685H144.34C138.325 74.7685 135.751 78.8489 135.751 85.5069V103.827H127.664V68.0428H135.606V72.0616C135.609 72.0616 138.538 68.0551 145.128 67.6855Z" fill="#DADFD9"/>
<path d="M158.63 68.043H150.469V103.83H158.63V68.043Z" fill="#DADFD9"/>
<path d="M182.271 67.1829C189.785 67.1829 194.58 71.6914 194.58 79.8522V103.827H186.419V82.9995C186.419 77.7027 184.057 73.6254 178.834 73.6254C173.035 73.6254 169.746 77.6319 169.746 84.7179V103.827H161.656V68.0421H169.598V71.6298C169.602 71.6298 174.076 67.0013 182.271 67.1829Z" fill="#DADFD9"/>
<path d="M224.621 97.3665V103.042C224.621 109.485 220.898 112.487 214.459 112.487C209.159 112.487 206.083 110.199 205.51 106.978H197.497C198.427 114.347 205.439 118.212 214.243 118.212C224.834 118.212 232.782 113.06 232.782 101.896V68.046H224.695V73.389C224.695 73.389 221.517 66.9374 212.457 67.1129C203.437 67.1129 196.641 74.202 196.641 85.5071C196.641 96.5288 203.151 103.615 212.602 103.615C212.599 103.615 221.277 104.317 224.621 97.3665ZM204.869 85.3623C204.869 77.9191 208.589 73.2658 214.816 73.2658C221.043 73.2658 224.766 78.0607 224.766 85.4332C224.766 92.8056 221.046 97.5297 214.816 97.5297C208.586 97.5297 204.869 92.9504 204.869 85.3623Z" fill="#DADFD9"/>
<path d="M37.8354 66.7285V63.7321C37.8354 62.1122 38.8271 60.0489 40.4962 60.0489H43.625V55.716L38.8301 55.7683C34.7066 55.7683 32.0951 59.7625 32.0951 63.7783V66.7285H26.3733C25.4371 59.5316 20.168 55.291 13.3129 55.291C5.63866 55.291 0 60.4554 0 69.0689C0 77.6301 5.63866 82.7483 13.3129 82.7483C20.2727 82.7483 25.6004 78.4154 26.4103 71.0614H32.0951V104.157H37.8909V71.0614H43.8406V66.7285H37.8354ZM13.2575 78.2614C8.45338 78.2614 5.94971 74.6091 5.94971 69.072C5.94971 63.4364 8.45337 59.7286 13.3098 59.7286C18.1109 59.7286 20.5653 63.4364 20.5653 69.072C20.5653 74.606 18.1139 78.2614 13.2575 78.2614Z" fill="#DADFD9"/>
<path fill-rule="evenodd" clip-rule="evenodd" d="M159.67 2.78711C161.78 2.78711 163.483 4.49626 163.483 6.60576C163.483 8.70909 161.777 10.4182 159.67 10.4182C157.561 10.4182 155.852 8.70909 155.852 6.60576C155.852 4.49626 157.561 2.78711 159.67 2.78711Z" fill="#DADFD9"/>
<path fill-rule="evenodd" clip-rule="evenodd" d="M154.402 44.3428C159.354 44.3428 163.367 48.3554 163.367 53.3074C163.367 58.2562 159.354 62.2689 154.402 62.2689C149.45 62.2689 145.438 58.2562 145.438 53.3074C145.434 48.3585 149.447 44.3428 154.402 44.3428Z" fill="#DADFD9"/>
</svg>
