<svg width="42" height="36" viewBox="0 0 42 36" fill="none" xmlns="http://www.w3.org/2000/svg">
<path d="M24 17H22V15C22 14.7348 21.8946 14.4804 21.7071 14.2929C21.5196 14.1054 21.2652 14 21 14C20.7348 14 20.4804 14.1054 20.2929 14.2929C20.1054 14.4804 20 14.7348 20 15V17H18C17.7348 17 17.4804 17.1054 17.2929 17.2929C17.1054 17.4804 17 17.7348 17 18C17 18.2652 17.1054 18.5196 17.2929 18.7071C17.4804 18.8946 17.7348 19 18 19H20V21C20 21.2652 20.1054 21.5196 20.2929 21.7071C20.4804 21.8946 20.7348 22 21 22C21.2652 22 21.5196 21.8946 21.7071 21.7071C21.8946 21.5196 22 21.2652 22 21V19H24C24.2652 19 24.5196 18.8946 24.7071 18.7071C24.8946 18.5196 25 18.2652 25 18C25 17.7348 24.8946 17.4804 24.7071 17.2929C24.5196 17.1054 24.2652 17 24 17Z" fill="white"/>
<path d="M36.8862 5.09658L36.8842 5.09463C34.7874 3.01504 32.0235 1.71606 29.0643 1.41652C26.2445 1.13108 23.411 1.7697 21.0022 3.22792C18.5963 1.77674 15.7689 1.1421 12.9554 1.4274C10.0025 1.72683 7.24412 3.02146 5.1491 5.09406L5.1491 5.09406L5.14665 5.0965C3.16624 7.07671 1.88139 9.62964 1.48241 12.3821C1.08342 15.1347 1.59168 17.94 2.93167 20.3868L2.93158 20.3869L2.93741 20.3971C3.47916 21.3452 4.15675 22.2114 4.94912 22.969L13.7564 31.7052L13.7571 31.7059C14.7013 32.6396 15.8235 33.38 17.0587 33.8851C18.2939 34.3901 19.6181 34.65 20.9553 34.65C22.2924 34.65 23.6167 34.3901 24.8519 33.8851C26.0871 33.38 27.2092 32.6396 28.1534 31.7059L28.1541 31.7052L37.0299 22.9017C37.812 22.1505 38.4838 21.2952 39.0255 20.3605L39.0255 20.3605L39.0306 20.3514C40.3881 17.9201 40.9129 15.1225 40.5262 12.3736C40.1396 9.6248 38.8624 7.07332 36.8862 5.09658Z" stroke="white" stroke-width="1.3"/>
</svg>
