<svg width="38" height="37" viewBox="0 0 38 37" fill="none" xmlns="http://www.w3.org/2000/svg">
<path d="M26.7461 26.0309H26.5961V26.1809V27.0114V27.1614H26.7461H27.9225H28.0725V27.0114V26.1809V26.0309H27.9225H26.7461Z" fill="#C1CBC4" stroke="#C1CBC4" stroke-width="0.3"/>
<path d="M29.7003 27.0115V27.1615H29.8503H36.8461C37.1581 27.1615 37.4113 26.9083 37.4113 26.5962V19.6262C37.4113 19.3141 37.1581 19.0609 36.8461 19.0609H12.7278C12.4157 19.0609 12.1625 19.3141 12.1625 19.6262V26.5962C12.1625 26.9083 12.4157 27.1615 12.7278 27.1615H24.8195H24.9695V27.0115V26.181V26.031H24.8195H13.293V20.1914H36.2808V26.031H29.8503H29.7003V26.181V27.0115ZM12.7278 32.5161H36.8461C37.1581 32.5161 37.4113 32.263 37.4113 31.9509V29.2733C37.4113 28.9613 37.1581 28.7081 36.8461 28.7081H12.7278C12.4157 28.7081 12.1625 28.9613 12.1625 29.2733V31.9509C12.1625 32.263 12.4157 32.5161 12.7278 32.5161ZM36.2808 29.8386V31.3856H13.293V29.8386H36.2808Z" fill="#C1CBC4" stroke="#C1CBC4" stroke-width="0.3"/>
<path d="M2.59198 4.22769L2.59199 4.22767C3.85383 2.06778 5.61734 0.85 7.56834 0.85C9.51934 0.85 11.2829 2.06778 12.5447 4.22767C13.6022 6.03766 14.2324 8.37593 14.2324 10.4889C14.2324 12.5333 13.618 14.4082 12.4915 15.7634C11.2737 17.2295 9.5681 18.0026 7.56876 18.0026C5.5694 18.0026 3.86384 17.2295 2.64561 15.7634L2.59198 4.22769ZM2.59198 4.22769C1.53494 6.03766 0.904687 8.37593 0.904687 10.4889C0.904687 12.5333 1.51907 14.4082 2.64559 15.7634L2.59198 4.22769ZM3.56817 4.798L3.56817 4.79799C4.3336 3.48778 5.63692 1.98051 7.56834 1.98051C9.49976 1.98051 10.8031 3.48778 11.5685 4.79799L11.5685 4.798C12.5279 6.43999 13.1019 8.56983 13.1019 10.4889C13.1019 12.0904 12.6688 13.6895 11.763 14.8843C10.8609 16.0742 9.48413 16.8721 7.56876 16.8721C5.65317 16.8721 4.27628 16.0742 3.37418 14.8843C2.46828 13.6895 2.03519 12.0904 2.03519 10.4889C2.03519 8.5694 2.60878 6.43997 3.56817 4.798ZM15.7069 29.839H17.4916C17.8037 29.839 18.0569 29.5858 18.0569 29.2737V26.5962C18.0569 26.2841 17.8037 26.0309 17.4916 26.0309H15.7069C15.3948 26.0309 15.1416 26.2841 15.1416 26.5962V29.2737C15.1416 29.5858 15.3948 29.839 15.7069 29.839ZM16.9264 27.1614V28.7085H16.2721V27.1614H16.9264ZM15.7069 36.1496H17.4916C17.8037 36.1496 18.0569 35.8964 18.0569 35.5843V31.9509C18.0569 31.6388 17.8037 31.3856 17.4916 31.3856H15.7069C15.3948 31.3856 15.1416 31.6388 15.1416 31.9509V35.5843C15.1416 35.8964 15.3948 36.1496 15.7069 36.1496ZM16.9264 32.5161V35.0191H16.2721V32.5161H16.9264ZM32.0903 29.839H33.875C34.1871 29.839 34.4403 29.5858 34.4403 29.2737V26.5962C34.4403 26.2841 34.1871 26.0309 33.875 26.0309H32.0903C31.7782 26.0309 31.525 26.2841 31.525 26.5962V29.2737C31.525 29.5858 31.7782 29.839 32.0903 29.839ZM33.3098 27.1614V28.7085H32.6555V27.1614H33.3098ZM32.0903 36.1496H33.875C34.1871 36.1496 34.4403 35.8964 34.4403 35.5843V31.9509C34.4403 31.6388 34.1871 31.3856 33.875 31.3856H32.0903C31.7782 31.3856 31.525 31.6388 31.525 31.9509V35.5843C31.525 35.8964 31.7782 36.1496 32.0903 36.1496ZM33.3098 32.5161V35.0191H32.6555V32.5161H33.3098Z" fill="#C1CBC4" stroke="#C1CBC4" stroke-width="0.3"/>
<path d="M7.10938 10.6579H6.95937V10.8079V26.4048V26.5548H7.10938H7.93988H8.08988V26.4048V10.8079V10.6579H7.93988H7.10938ZM23.8103 10.7946C23.8103 13.9769 26.3993 16.5659 29.5816 16.5659C32.7639 16.5659 35.3529 13.9769 35.3529 10.7946C35.3529 7.61233 32.7639 5.02334 29.5816 5.02334C26.3993 5.02334 23.8103 7.61233 23.8103 10.7946ZM24.9408 10.7946C24.9408 8.23562 27.0226 6.15385 29.5816 6.15385C32.1406 6.15385 34.2224 8.23562 34.2224 10.7946C34.2224 13.3536 32.1406 15.4354 29.5816 15.4354C27.0226 15.4354 24.9408 13.3536 24.9408 10.7946Z" fill="#C1CBC4" stroke="#C1CBC4" stroke-width="0.3"/>
<path d="M29.1654 12.2119H29.0154V12.3619V19.6263V19.7763H29.1654H29.9959H30.1459V19.6263V12.3619V12.2119H29.9959H29.1654ZM5.21627 11.9684L5.11019 12.0744L5.21624 12.1805L7.16565 14.1305L7.22483 14.1897L7.16572 14.2488L7.05964 14.3548L7.16569 14.4609L7.75285 15.0483L7.8589 15.1543L7.96499 15.0483L9.53465 13.479L9.64072 13.373L9.53468 13.2669L8.94751 12.6795L8.84146 12.5735L8.73537 12.6795L8.02431 13.3904L7.96514 13.3312L6.01574 11.3813L5.90969 11.2752L5.80361 11.3812L5.21627 11.9684ZM1 35.0196H0.85V35.1696V36.0001V36.1501H1H37.2516H37.4016V36.0001V35.1696V35.0196H37.2516H1ZM1.84047 32.3348H1.99047V32.1848C1.99047 29.316 4.32431 26.9822 7.19267 26.9822C7.47982 26.9822 7.76728 27.0056 8.04768 27.052L8.19563 27.0765L8.22015 26.9285L8.35594 26.1093L8.38046 25.9613L8.2325 25.9368C7.89124 25.8802 7.54169 25.8517 7.19308 25.8517C3.70101 25.8517 0.859966 28.6927 0.859966 32.1848V32.3348H1.00997H1.84047Z" fill="#C1CBC4" stroke="#C1CBC4" stroke-width="0.3"/>
<path d="M8.23051 27.7451H8.08051H7.25H7.1V27.5951C7.1 25.8068 8.55452 24.3523 10.3428 24.3523C11.486 24.3523 12.5566 24.9643 13.1379 25.9501L13.2142 26.0794L13.0849 26.1555L12.3694 26.577L12.2401 26.6532L12.164 26.5239C11.7857 25.8816 11.0874 25.4824 10.3433 25.4824L8.23051 27.7451ZM8.23051 27.7451V27.5951M8.23051 27.7451V27.5951M8.23051 27.5951C8.23051 26.4306 9.17818 25.4828 10.3432 25.4824L8.23051 27.5951ZM29.1775 13.7774L29.0714 13.8835L29.1775 13.9895L29.7647 14.5768L29.8708 14.6829L29.9769 14.5768L31.7148 12.8388L31.8209 12.7327L31.7148 12.6266L31.1276 12.0394L31.0215 11.9334L30.9155 12.0394L29.1775 13.7774Z" fill="#C1CBC4" stroke="#C1CBC4" stroke-width="0.3"/>
</svg>
