<svg width="240" height="122" viewBox="0 0 240 122" fill="none" xmlns="http://www.w3.org/2000/svg">
<path d="M0.855469 51.6045H9.33045V32.6836L20.7258 32.7558C31.9797 32.7558 38.6251 26.1796 38.6251 16.7552C38.6251 7.47863 32.3412 0.609985 21.1627 0.609985H0.855469V51.6045ZM9.33045 25.8904V7.40633H19.9965C27.0097 7.40633 30.081 10.8391 30.081 16.6829C30.081 22.5268 27.0097 25.8904 19.9965 25.8904H9.33045Z" fill="#7D8A81"/>
<path d="M54.7736 15.5198C55.943 15.0043 57.3576 14.7119 59.0646 14.7119H61.8371V21.9452H58.2567C52.1205 21.9452 49.4925 26.1104 49.4925 32.9036V51.6108H41.2344V15.0766H49.3447V20.8293C49.3479 20.8293 50.8222 17.2708 54.7736 15.5198Z" fill="#7D8A81"/>
<path d="M79.9247 52.5539C90.5185 52.5539 98.4088 45.3929 98.4088 33.4128C98.4088 21.3573 90.5185 14.1272 79.9247 14.1272C69.1864 14.1272 61.293 21.3573 61.293 33.4128C61.2961 45.396 69.1864 52.5539 79.9247 52.5539ZM69.6234 33.4128C69.6234 25.5225 73.1284 20.3326 79.9247 20.3326C86.6456 20.3326 90.0815 25.5194 90.0815 33.4128C90.0815 41.1585 86.6488 46.2699 79.8524 46.2699C73.1284 46.2731 69.6234 41.1585 69.6234 33.4128Z" fill="#7D8A81"/>
<path d="M144.717 14.1995C152.532 14.1995 156.697 19.1663 156.697 27.0566V39.0523C151.457 39.6119 148.366 42.6423 148.366 42.6423V29.6877C148.366 24.3531 146.54 20.7727 141.498 20.7727C136.091 20.7727 133.098 24.6455 133.098 30.7817V51.6014H124.768V29.7569C124.768 25.2993 123.526 20.7727 117.682 20.7727C112.275 20.7727 109.06 24.5732 109.06 32.3157V51.6014H100.805V15.0734H108.987V20.5966C108.987 20.5966 112.668 13.4388 120.967 14.1932C126.365 14.1932 129.769 16.5132 131.498 21.0084C131.505 21.0147 134.969 14.3064 144.717 14.1995Z" fill="#7D8A81"/>
<path d="M186.555 52.5539C196.564 52.5539 202.92 47.804 202.92 40.6461C202.92 33.9252 197.802 31.6587 192.619 30.7848L184.797 29.5431C181.729 29.0339 178.806 28.5183 178.806 25.0856C178.806 21.5051 182.094 19.751 186.331 19.751C191.006 19.751 193.634 21.7251 194.146 25.3779H201.744C201.084 17.6322 194.803 14.1272 186.476 14.1272C177.049 14.1272 171.057 18.7293 171.057 25.6703C171.057 31.2972 174.345 34.73 180.774 35.7516L189.032 37.0688C192.537 37.5812 195.168 38.3136 195.168 41.454C195.168 44.5944 191.952 46.9301 187.061 46.9301C182.091 46.9301 178.218 44.9591 177.633 40.9385H169.746C170.626 48.8288 177.567 52.5539 186.555 52.5539Z" fill="#7D8A81"/>
<path d="M222.211 52.5538C230.831 52.5538 237.627 47.5116 239.013 40.426H231.268C229.951 43.9311 227.326 46.4899 222.284 46.4899C215.855 46.4899 212.35 42.2493 212.058 35.5284L239.526 35.4561V32.9695C239.526 21.4987 232.657 14.1208 222.067 14.1208C211.397 14.1208 204.02 21.7188 204.02 33.4788C204.02 45.4683 211.397 52.5538 222.211 52.5538ZM212.127 30.4201C212.495 24.3562 216.216 20.3356 222.136 20.3356C227.835 20.3356 231.343 24.0607 231.636 30.3478L212.127 30.4201Z" fill="#7D8A81"/>
<path d="M167.987 42.3059V15.0766H159.656V39.0492C159.656 39.0492 164.318 39.2001 167.987 42.3059Z" fill="#7D8A81"/>
<path d="M69.2976 107.214C82.3779 107.214 89.608 100.201 89.608 91.2132C89.608 82.9583 83.9811 79.0854 76.7509 77.916L65.2078 76.0896C62.3535 75.5772 57.8268 74.4078 57.8268 69.1487C57.8268 64.0373 62.3535 60.7491 68.8607 60.7491C75.0723 60.7491 79.162 63.4526 80.0391 68.564H88.0771C87.2001 59.5797 80.1868 54.4652 68.9361 54.4652C57.9746 54.4652 49.4996 60.0167 49.4996 69.8088C49.4996 76.5297 53.7402 81.9366 61.8474 83.1783L73.3905 85.0047C76.8232 85.5894 81.2808 87.0511 81.2808 92.238C81.2808 96.6955 77.848 100.858 69.5177 100.858C61.7751 100.858 57.0975 97.2048 56.3682 91.4332H48.1133C48.9872 100.785 56.3651 107.214 69.2976 107.214Z" fill="#7D8A81"/>
<path d="M112.663 107.069C121.795 107.069 128.808 100.056 128.808 88.0759C128.808 76.0204 121.722 68.9349 112.515 68.9349C112.515 68.9349 104.065 68.4444 99.8748 75.9387V69.8842H91.6953V120.734H99.9503C99.9503 120.734 99.9031 106.679 99.8842 100.697C99.8842 100.694 103.106 106.881 112.663 107.069ZM99.8025 88.0727C99.8025 80.327 103.745 75.2156 110.104 75.2156C116.46 75.2156 120.405 80.1824 120.405 88.0727C120.405 95.8876 116.46 100.861 110.104 100.861C103.748 100.861 99.8025 95.743 99.8025 88.0727Z" fill="#7D8A81"/>
<path d="M148.804 69.5165H151.579V76.7466H147.999C141.86 76.7466 139.232 80.9118 139.232 87.7082V106.409H130.977V69.8811H139.084V73.9835C139.087 73.9835 142.076 69.8937 148.804 69.5165Z" fill="#7D8A81"/>
<path d="M162.584 69.8811H154.254V106.412H162.584V69.8811Z" fill="#7D8A81"/>
<path d="M186.715 69.004C194.385 69.004 199.279 73.6062 199.279 81.9365V106.409H190.949V85.1492C190.949 79.7423 188.538 75.5803 183.207 75.5803C177.287 75.5803 173.93 79.67 173.93 86.9033V106.409H165.672V69.881H173.779V73.5433C173.782 73.5433 178.35 68.8185 186.715 69.004Z" fill="#7D8A81"/>
<path d="M229.957 99.8139V105.607C229.957 112.184 226.156 115.249 219.583 115.249C214.173 115.249 211.033 112.913 210.448 109.625H202.268C203.218 117.147 210.376 121.093 219.363 121.093C230.174 121.093 238.287 115.833 238.287 104.438V69.8842H230.032V75.3383C230.032 75.3383 226.788 68.7525 217.54 68.9317C208.332 68.9317 201.395 76.1681 201.395 87.7081C201.395 98.9588 208.04 106.192 217.687 106.192C217.684 106.192 226.543 106.909 229.957 99.8139ZM209.794 87.5604C209.794 79.9624 213.591 75.2125 219.948 75.2125C226.304 75.2125 230.104 80.107 230.104 87.6327C230.104 95.1583 226.307 99.9805 219.948 99.9805C213.588 99.9805 209.794 95.306 209.794 87.5604Z" fill="#7D8A81"/>
<path d="M39.2856 68.5388V65.4801C39.2856 63.8266 40.2978 61.7205 42.0016 61.7205H45.1955V57.2975L40.301 57.3509C36.0918 57.3509 33.4261 61.4281 33.4261 65.5273V68.5388H27.5853C26.6297 61.1923 21.2511 56.8637 14.2536 56.8637C6.41988 56.8637 0.664062 62.1354 0.664062 70.9279C0.664062 79.6669 6.41988 84.8915 14.2536 84.8915C21.358 84.8915 26.7963 80.4685 27.6231 72.9618H33.4261V106.745H39.3422V72.9618H45.4155V68.5388H39.2856ZM14.197 80.3114C9.29308 80.3114 6.73739 76.5831 6.73739 70.931C6.73739 65.1783 9.29308 61.3935 14.2504 61.3935C19.1512 61.3935 21.6566 65.1783 21.6566 70.931C21.6566 76.58 19.1544 80.3114 14.197 80.3114Z" fill="#7D8A81"/>
<path fill-rule="evenodd" clip-rule="evenodd" d="M163.66 3.26949C165.813 3.26949 167.551 5.01415 167.551 7.16748C167.551 9.31452 165.81 11.0592 163.66 11.0592C161.506 11.0592 159.762 9.31452 159.762 7.16748C159.762 5.01415 161.506 3.26949 163.66 3.26949Z" fill="#7D8A81"/>
<path fill-rule="evenodd" clip-rule="evenodd" d="M158.272 45.6883C163.327 45.6883 167.423 49.7844 167.423 54.8392C167.423 59.8908 163.327 63.9869 158.272 63.9869C153.217 63.9869 149.121 59.8908 149.121 54.8392C149.118 49.7875 153.214 45.6883 158.272 45.6883Z" fill="#7D8A81"/>
</svg>
