<svg width="117" height="33" viewBox="0 0 117 33" fill="none" xmlns="http://www.w3.org/2000/svg">
<path fill-rule="evenodd" clip-rule="evenodd" d="M16.2907 32.0906C24.9383 32.0906 31.9486 25.0803 31.9486 16.4327C31.9486 7.78507 24.9383 0.774811 16.2907 0.774811C7.64308 0.774811 0.632812 7.78507 0.632812 16.4327C0.632812 25.0803 7.64308 32.0906 16.2907 32.0906ZM16.2907 31.641C24.69 31.641 31.499 24.832 31.499 16.4327C31.499 8.03336 24.69 1.22441 16.2907 1.22441C7.89137 1.22441 1.08242 8.03336 1.08242 16.4327C1.08242 24.832 7.89137 31.641 16.2907 31.641Z" fill="#6B786F"/>
<path fill-rule="evenodd" clip-rule="evenodd" d="M16.0928 7.6374C16.1376 7.63517 16.1823 7.63517 16.227 7.63517C16.1845 7.63517 16.1398 7.63517 16.0928 7.6374ZM15.7707 26.0802C16.0369 26.0466 16.2964 25.9885 16.5469 25.9102V18.8619C16.2897 18.7232 16.028 18.5912 15.7707 18.4615V26.0802ZM19.7277 22.6242C19.7232 22.669 19.7165 22.7137 19.7098 22.7562C19.6002 23.4496 19.2334 24.1274 18.6719 24.6508C18.1865 25.096 17.5759 25.5165 16.8824 25.7894V19.0386C17.7548 19.524 18.5712 20.0608 19.1282 20.667C19.5062 21.0987 19.7255 21.649 19.7434 22.2239C19.7456 22.3581 19.7411 22.49 19.7277 22.6242ZM15.4374 13.4241C14.5248 12.9767 13.7128 12.5025 13.2163 11.9523C12.9523 11.6414 12.7666 11.317 12.6749 10.9815C12.6481 10.8831 12.628 10.7824 12.6168 10.6795C12.5519 10.0733 12.798 9.43807 13.4422 8.78714C13.7799 8.46057 14.2116 8.08477 14.7574 7.91701C14.9274 7.86333 15.178 7.79399 15.4374 7.73807V13.4241ZM15.4374 16.511C14.0774 15.8936 12.7309 15.265 12.0263 14.4821C11.3239 13.6523 11.1695 12.724 11.8764 11.7554C11.9278 12.0283 12.0218 12.29 12.1582 12.5316C12.8002 13.6769 13.7844 14.2719 14.8491 14.8557C15.0303 14.9564 15.2294 15.0615 15.4397 15.1689L15.4374 16.511ZM16.2539 15.576C16.3501 15.6229 16.4485 15.6721 16.5491 15.7214V17.021C16.2941 16.9002 16.0347 16.7816 15.773 16.6631V15.3389C15.9273 15.4149 16.0884 15.4954 16.2539 15.576ZM20.316 18.1371C19.5107 17.2581 18.1552 16.5221 16.8802 15.8869V17.1798C17.1643 17.3185 17.4394 17.4594 17.6966 17.6025C18.2335 17.8956 18.7748 18.2333 19.2445 18.6292C19.6941 19.0073 20.0945 19.4457 20.3697 19.9624C20.5061 20.2152 20.6068 20.4881 20.6716 20.7677C20.6828 20.8214 20.6918 20.875 20.6985 20.9287C21.0899 19.9982 21.0161 18.9446 20.316 18.1371ZM21.8616 18.2356C21.7968 17.9537 21.6961 17.6831 21.5597 17.4303C21.2845 16.9136 20.8841 16.4752 20.4345 16.0971C20.108 15.8287 19.7635 15.5827 19.4011 15.3657C19.2311 15.2628 19.0589 15.1644 18.8866 15.0704C18.8106 15.0279 18.7301 14.9832 18.6495 14.9407C18.1037 14.6499 17.4931 14.3703 16.878 14.0929V11.0374L16.6185 10.7779V8.31293H16.5447V13.9431C16.283 13.8245 16.0235 13.706 15.7685 13.5852V9.37543L15.509 9.11372V7.72241C15.6991 7.67991 15.8938 7.65306 16.0884 7.63964C15.8982 7.64412 15.7014 7.65754 15.509 7.6799V6.91043H15.4352V7.68885C15.1914 7.71793 14.9476 7.76043 14.7082 7.81859C14.1289 7.96622 13.6278 8.20109 13.2095 8.51425C12.8024 8.81846 12.4647 9.20991 12.2231 9.65951C11.9614 10.2053 11.8361 10.722 11.8272 11.2007C11.5051 11.4803 11.2344 11.8158 11.0331 12.1939C10.503 13.3011 10.5298 14.2942 10.9638 15.0682C11.6057 16.2135 12.5899 16.8085 13.6547 17.3923C14.0595 17.6182 14.5427 17.8553 15.0594 18.1103C15.1824 18.1707 15.3077 18.2333 15.4352 18.296V26.1115C15.424 26.1115 15.4016 26.1115 15.386 26.1137C15.3793 26.1137 15.3748 26.1137 15.3703 26.1137C15.3659 26.1137 15.3636 26.1137 15.3614 26.1137C15.2205 26.1137 15.1198 26.1115 14.9028 26.0936L14.9297 26.0958C15.0549 26.107 15.1757 26.116 15.292 26.116H15.3502H15.4352C15.547 26.116 15.6589 26.1137 15.7685 26.1092C16.9719 26.0511 18.0859 25.6596 18.947 24.9975C20.1035 24.0558 20.6426 23.0045 20.732 21.9174C21.8102 20.7766 22.0987 19.515 21.8616 18.2356Z" fill="#6B786F"/>
<path d="M44.3948 23.5905C42.6277 23.5905 41.0418 23.1857 40.0039 22.414L40.4222 20.5574H40.496C41.3348 22.1008 42.7015 23.3333 44.3971 23.3333C46.238 23.3333 47.3318 22.3961 47.3318 20.8527C47.3318 17.1216 40.5161 17.654 40.5161 13.4286C40.5161 11.2969 42.3213 9.97266 44.8534 9.97266C46.4393 9.97266 47.7501 10.4692 48.7544 11.1492L48.316 13.0416H48.2243C47.5868 11.6637 46.4572 10.2299 44.7796 10.2299C43.084 10.2299 42.0104 11.2231 42.0104 12.6367C42.0104 16.0188 48.9177 15.4663 48.9177 19.987C48.9155 22.2127 47.1663 23.5905 44.3948 23.5905Z" fill="#6B786F"/>
<path d="M53.4335 22.8747C54.6548 22.8747 55.4735 22.2305 56.0037 21.6244V17.8933L54.0531 18.7008C52.3218 19.4546 51.8476 20.3919 51.8476 21.2732C51.8476 22.1746 52.4135 22.8747 53.4335 22.8747ZM59.3925 22.1567H59.4104L59.4462 22.2126C59.0994 23.1857 58.5894 23.5905 57.7506 23.5905C56.9498 23.5905 56.2005 23.0761 56.0193 21.8257V21.7697C55.1626 22.8546 53.9972 23.5883 52.5746 23.5883C51.19 23.5883 50.2773 22.8166 50.2773 21.6042C50.2773 20.4276 51.1519 19.4904 53.2837 18.7187L55.9992 17.7457V17.0098C55.9992 15.8332 55.5608 14.4195 53.7221 14.4195C52.0444 14.4195 50.8969 15.8153 50.8969 17.0299H50.8052C50.8052 15.3769 52.0444 13.6299 54.2679 13.6299C56.7463 13.6299 57.7305 15.2471 57.7305 17.5086V21.6065C57.7305 22.5079 58.0414 22.8188 58.5313 22.8188C58.8646 22.8188 59.1576 22.6354 59.3925 22.1567Z" fill="#6B786F"/>
<path d="M75.0786 17.6003V22.0471C75.0786 22.5974 75.2799 23.1678 75.734 23.3512V23.4608H72.6718V23.3512C73.1281 23.1678 73.3093 22.6354 73.3093 22.0471V17.1954C73.3093 15.265 72.4347 14.4016 71.2872 14.4016C70.1934 14.4016 69.3926 15.0257 68.7909 15.7616V22.0471C68.7909 22.5974 68.9922 23.1678 69.4462 23.3512V23.4608H66.384V23.3512C66.8403 23.1678 67.0215 22.6354 67.0215 22.0471V17.1954C67.0215 15.265 66.1469 14.4016 64.9994 14.4016C63.9056 14.4016 63.0668 14.8803 62.521 15.5961V22.0471C62.521 22.5974 62.7022 23.1678 63.1585 23.3512V23.4608H60.1141V23.3512C60.5705 23.1678 60.7516 22.6354 60.7516 22.0471V16.3499C60.7516 15.5223 60.4407 15.1733 59.9688 14.7684V14.6946C60.642 14.4374 61.6464 14.0705 62.3555 13.8133H62.4293L62.4472 15.4865C63.1205 14.4396 64.3977 13.6299 65.874 13.6299C67.9341 13.6299 68.5716 15.1912 68.717 15.652C69.3545 14.585 70.6497 13.6299 72.1439 13.6299C74.6044 13.6299 75.0786 15.8175 75.0786 17.6003Z" fill="#6B786F"/>
<path d="M81.6484 23.2976C83.1985 23.2976 84.5093 21.9555 84.5093 18.759C84.5093 16.0032 83.4893 14.4218 81.9571 14.4218C80.8454 14.4218 79.9887 14.9362 79.4429 15.708V22.1389C79.9708 22.8547 80.8834 23.2976 81.6484 23.2976ZM82.6863 13.6478C84.8001 13.6478 86.4397 15.3926 86.4397 18.6091C86.4397 21.7519 84.3997 23.5883 81.9012 23.5883C80.8812 23.5883 79.7516 23.1656 78.8948 22.2462L77.7831 23.4586H77.6735V11.8248C77.6735 10.9972 77.3626 10.6482 76.8906 10.2434V10.1516C77.584 9.8944 78.6398 9.52756 79.3512 9.27032H79.425V15.5559C80.0983 14.4576 81.248 13.6478 82.6863 13.6478Z" fill="#6B786F"/>
<path d="M96.5721 17.6003V22.0471C96.5721 22.5974 96.7734 23.1678 97.2275 23.3512V23.4608H94.1832V23.3512C94.6395 23.1678 94.8207 22.6354 94.8207 22.0471V17.1954C94.8207 15.265 93.9282 14.4016 92.7807 14.4016C91.6868 14.4016 90.848 14.8803 90.3022 15.5961V22.0471C90.3022 22.5974 90.5036 23.1678 90.9576 23.3512V23.4608H87.8954V23.3512C88.3517 23.1678 88.5329 22.6354 88.5329 22.0471V11.8293C88.5329 11.0016 88.222 10.6527 87.75 10.2478V10.1561L90.1546 9.27478H90.3V15.3948C90.9733 14.4016 92.2125 13.6299 93.653 13.6299C96.1158 13.6299 96.5721 15.8175 96.5721 17.6003Z" fill="#6B786F"/>
<path d="M101.547 22.8747C102.768 22.8747 103.587 22.2305 104.117 21.6244V17.8933L102.166 18.7008C100.435 19.4546 99.9609 20.3919 99.9609 21.2732C99.9609 22.1746 100.527 22.8747 101.547 22.8747ZM107.506 22.1567H107.524L107.559 22.2126C107.213 23.1857 106.703 23.5905 105.864 23.5905C105.063 23.5905 104.314 23.0761 104.133 21.8257V21.7697C103.276 22.8546 102.11 23.5883 100.688 23.5883C99.3033 23.5883 98.3906 22.8166 98.3906 21.6042C98.3906 20.4276 99.2652 19.4904 101.397 18.7187L104.112 17.7457V17.0098C104.112 15.8332 103.674 14.4195 101.835 14.4195C100.158 14.4195 99.0102 15.8153 99.0102 17.0299H98.923C98.923 15.3769 100.162 13.6299 102.386 13.6299C104.864 13.6299 105.848 15.2471 105.848 17.5086V21.6065C105.848 22.5079 106.159 22.8188 106.649 22.8188C106.978 22.8188 107.271 22.6354 107.506 22.1567Z" fill="#6B786F"/>
<path d="M113.994 14.0527V13.9431H116.235V14.0527C115.524 14.4754 115.287 14.9541 115.088 15.3948L111.515 23.4631H111.352L107.981 15.6341C107.634 14.8624 107.415 14.4396 106.852 14.0527V13.9431H110.368V14.0527C109.766 14.2741 109.384 14.7327 109.802 15.6878L112.189 21.3112L114.685 15.5961C114.996 14.9161 114.649 14.4396 113.994 14.0527Z" fill="#6B786F"/>
</svg>
