<svg width="62" height="29" viewBox="0 0 62 29" fill="none" xmlns="http://www.w3.org/2000/svg">
<path d="M59.7646 14.1515C59.7126 14.183 59.6454 14.17 59.6075 14.1223C59.51 13.9966 59.4104 13.8731 59.3204 13.7421C55.0091 7.43206 49.0988 3.55614 41.5658 2.28222C31.0029 0.497006 22.5372 4.22126 15.7819 12.3024C15.3779 12.7866 14.9207 13.2362 14.4419 13.6489C14.2134 13.8461 13.5363 14.4039 12.8593 13.8591C12.036 13.1961 12.8149 11.9168 13.3338 11.3838C14.8352 9.84232 16.2965 8.23909 17.9409 6.86118C21.6207 3.78038 25.8238 1.70918 30.5739 0.821984C33.4543 0.283602 36.3444 0.278186 39.2454 0.625914C43.1246 1.09172 46.7719 2.25731 50.1398 4.2451C54.02 6.53511 57.1745 9.58125 59.5393 13.4279C59.6497 13.6067 59.7267 13.8049 59.8133 13.9988C59.8382 14.0551 59.8177 14.1201 59.7657 14.1515H59.7646Z" fill="#6B786F"/>
<path d="M2.23044 28.2653C2.23044 28.2653 0.619626 28.2566 0 28.2566C0.15599 27.8005 5.57664 12.5352 5.57664 12.5352H7.98907C7.98907 12.5352 13.4639 27.9814 13.5549 28.2544C12.8399 28.2544 11.3168 28.2349 11.3168 28.2349L9.68221 23.6765L3.78492 23.6755L2.23044 28.2653ZM6.77148 14.6844C5.97853 17.0275 5.18125 19.4973 4.37313 21.887H9.14382C8.34112 19.4908 7.55576 17.0296 6.77148 14.6844Z" fill="#6B786F"/>
<path d="M34.803 23.6038C34.8095 23.6764 34.829 23.7479 34.8442 23.8172C35.3262 25.9989 37.5415 27.184 40.0406 26.4626C40.7231 26.2351 41.425 25.8007 42.0067 25.3912C42.1248 25.6003 42.3295 25.9805 42.4823 26.2524L42.8972 26.9045L42.1703 27.4418C39.4903 29.1545 35.9675 28.7656 33.9916 26.5796C31.5402 23.866 32.1512 18.0521 36.6749 16.9158C40.1457 16.0448 42.9676 18.1496 43.0293 21.7146C43.0358 22.084 43.0304 22.4534 43.0304 22.8889H42.2862C39.981 22.8889 37.6747 22.9062 35.3685 22.877H34.764C34.7651 22.877 34.7629 23.1857 34.803 23.6038ZM40.8574 21.316C40.879 19.5492 39.747 18.3706 38.107 18.3793C36.3662 18.389 34.8485 19.7615 34.8897 21.316H40.8574Z" fill="#6B786F"/>
<path d="M54.9773 26.4523H61.7369V28.257H52.0352V26.9365C54.076 24.4471 56.5805 21.3707 58.6355 18.7936H52.0352V16.925H61.6242V18.253C61.6231 18.253 55.8558 25.3636 54.9773 26.4523Z" fill="#6B786F"/>
<path d="M30.4983 19.5084C29.4801 18.7696 28.4055 18.4133 27.189 18.5963C26.4394 18.709 25.9281 19.1315 25.8316 19.7468C25.7212 20.4433 26.1599 20.8387 26.6961 21.1149C27.2756 21.4139 27.8974 21.6327 28.4889 21.9133C29.1128 22.209 29.7671 22.4722 30.3294 22.8622C32.1222 24.1058 32.0832 26.5789 30.2481 27.7705C28.712 28.7671 27.0373 28.6999 25.3875 28.1236C24.6628 27.8701 24.0128 27.4076 23.2578 27.0014C23.6586 26.4023 23.9771 25.9289 24.3042 25.4393C24.678 25.6798 25.0105 25.9192 25.3669 26.1174C26.1902 26.5735 27.0741 26.7955 28.0144 26.6396C28.3188 26.5886 28.6373 26.4738 28.8919 26.3037C29.6502 25.7968 29.6978 24.85 28.9536 24.329C28.4239 23.9585 27.7978 23.7267 27.215 23.432C26.4329 23.0366 25.5868 22.7279 24.8816 22.2253C23.1257 20.973 23.2827 18.4869 25.1308 17.382C26.9149 16.3139 29.8744 16.589 31.314 17.981C31.0508 18.4728 30.7822 18.9766 30.4983 19.5084Z" fill="#6B786F"/>
<path d="M21.4163 19.5079C20.398 18.7691 19.3224 18.4127 18.1069 18.5958C17.3573 18.7085 16.846 19.1309 16.7496 19.7462C16.6391 20.4428 17.0778 20.8382 17.6141 21.1144C18.1936 21.4134 18.8154 21.6322 19.4069 21.9128C20.0308 22.2085 20.6851 22.4717 21.2473 22.8617C23.0401 24.1053 23.0011 26.5784 21.1661 27.77C19.63 28.7666 17.9553 28.6994 16.3055 28.1231C15.5808 27.8696 14.9308 27.4071 14.1758 27.0008C14.5766 26.4018 14.8951 25.9284 15.2222 25.4388C15.5959 25.6793 15.9285 25.9187 16.2849 26.1169C17.1082 26.573 17.9921 26.795 18.9324 26.639C19.2368 26.5881 19.5553 26.4733 19.8098 26.3032C20.5681 25.7963 20.6158 24.8495 19.8716 24.3284C19.3419 23.958 18.7157 23.7261 18.1329 23.4315C17.3508 23.0361 16.5048 22.7274 15.7996 22.2247C14.0436 20.9725 14.2007 18.4864 16.0487 17.3815C17.8329 16.3134 20.7924 16.5885 22.232 17.9805C21.9688 18.4723 21.7001 18.976 21.4163 19.5079Z" fill="#6B786F"/>
<path d="M50.5953 18.829V17.1716C49.8825 17.1716 47.8904 17.1824 47.8904 17.1824V13.9023H45.8571L45.8679 17.2019H44.3438V18.8279H45.7661C45.7661 18.8279 45.7466 22.823 45.7845 24.5107C45.856 27.7031 48.3951 28.547 50.7707 28.2577V26.3934C48.8566 26.3934 47.9933 25.9005 47.9933 24.1478V18.8279C47.9943 18.8268 49.8175 18.829 50.5953 18.829Z" fill="#6B786F"/>
</svg>
