<svg width="60" height="63" viewBox="0 0 60 63" fill="none" xmlns="http://www.w3.org/2000/svg">
<path d="M60 39.9484C60 38.8052 59.4 37.7573 58.4526 37.1222L34.7368 22.2289V4.76333C34.7368 2.12762 32.6211 0 30 0C27.3789 0 25.2632 2.12762 25.2632 4.76333V22.2289L1.54737 37.1222C0.6 37.7256 0 38.8052 0 39.9484C0 42.1713 2.14737 43.7909 4.29474 43.124L25.2632 36.5189V53.9844L19.5789 58.2714C19.1684 58.5572 18.9474 59.0335 18.9474 59.5416V61.4152C18.9474 62.4631 19.9579 63.2252 20.9684 62.9394L30 60.3355L39.0316 62.9394C40.0421 63.2252 41.0526 62.4631 41.0526 61.4152V59.5416C41.0526 59.0335 40.8316 58.5572 40.4211 58.2714L34.7368 53.9844V36.5189L55.7053 43.124C57.8526 43.7909 60 42.1713 60 39.9484Z" fill="#6C7A70"/>
</svg>
