<svg width="40" height="31" viewBox="0 0 40 31" fill="none" xmlns="http://www.w3.org/2000/svg">
<path d="M18.7277 17.5718H36.9677C37.2064 17.5718 37.3977 17.3895 37.3977 17.1546V11.2802C37.3977 11.0454 37.2064 10.8631 36.9677 10.8631H18.7277C18.4889 10.8631 18.2977 11.0454 18.2977 11.2802V17.1546C18.2977 17.3895 18.4889 17.5718 18.7277 17.5718ZM36.5377 11.6974V16.7375H19.1577V11.6974H36.5377Z" fill="white" stroke="#6C7A70" stroke-width="0.1"/>
<path d="M36.5736 14.2173V14.1673H36.5236H19.1758H19.1258V14.2173V15.0434V15.0934H19.1758H36.5236H36.5736V15.0434V14.2173Z" fill="white" stroke="#6C7A70" stroke-width="0.1"/>
<path d="M20.2477 12.3398H21.7677C22.0064 12.3398 22.1977 12.1575 22.1977 11.9227V10.4541C22.1977 10.2192 22.0064 10.0369 21.7677 10.0369H20.2477C20.0089 10.0369 19.8177 10.2192 19.8177 10.4541V11.9227C19.8177 12.1575 20.0089 12.3398 20.2477 12.3398ZM21.3377 10.8712V11.5055H20.6777V10.8712H21.3377ZM20.2477 22.62H21.7677C22.0064 22.62 22.1977 22.4377 22.1977 22.2029V17.7971C22.1977 17.5622 22.0064 17.3799 21.7677 17.3799H20.2477C20.0089 17.3799 19.8177 17.5622 19.8177 17.7971V22.2029C19.8177 22.4377 20.0089 22.62 20.2477 22.62ZM21.3377 18.2142V21.7857H20.6777V18.2142H21.3377ZM18.7277 29.963H20.2477C20.4864 29.963 20.6777 29.7807 20.6777 29.5459V25.1401C20.6777 24.9052 20.4864 24.7229 20.2477 24.7229H18.7277C18.4889 24.7229 18.2977 24.9052 18.2977 25.1401V29.5459C18.2977 29.7807 18.4889 29.963 18.7277 29.963ZM19.8177 25.5572V29.1287H19.1577V25.5572H19.8177ZM33.9277 12.3398H35.4477C35.6864 12.3398 35.8777 12.1575 35.8777 11.9227V10.4541C35.8777 10.2192 35.6864 10.0369 35.4477 10.0369H33.9277C33.6889 10.0369 33.4977 10.2192 33.4977 10.4541V11.9227C33.4977 12.1575 33.6889 12.3398 33.9277 12.3398ZM35.0177 10.8712V11.5055H34.3577V10.8712H35.0177ZM33.9277 22.62H35.4477C35.6864 22.62 35.8777 22.4377 35.8777 22.2029V17.7971C35.8777 17.5622 35.6864 17.3799 35.4477 17.3799H33.9277C33.6889 17.3799 33.4977 17.5622 33.4977 17.7971V22.2029C33.4977 22.4377 33.6889 22.62 33.9277 22.62ZM35.0177 18.2142V21.7857H34.3577V18.2142H35.0177ZM35.4477 29.963H36.9677C37.2064 29.963 37.3977 29.7807 37.3977 29.5459V25.1401C37.3977 24.9052 37.2064 24.7229 36.9677 24.7229H35.4477C35.2089 24.7229 35.0177 24.9052 35.0177 25.1401V29.5459C35.0177 29.7807 35.2089 29.963 35.4477 29.963ZM36.5377 25.5572V29.1287H35.8777V25.5572H36.5377Z" fill="white" stroke="#6C7A70" stroke-width="0.1"/>
<path d="M1.97732 14.5719C1.46844 14.9971 1.21245 15.6134 1.08325 16.1272C0.953855 16.6417 0.95 17.0598 0.95 17.0958C0.95 17.3326 1.13526 17.5201 1.37109 17.5201H17.5508H17.6008V17.4701V16.7065V16.6565H17.5508H1.83717M1.97732 14.5719L2.00937 14.6103L1.9772 14.572C1.97724 14.572 1.97728 14.572 1.97732 14.5719ZM1.97732 14.5719C2.42469 14.1959 2.98775 14.0349 3.6411 14.0853M3.6411 14.0853C3.63749 14.0994 3.63403 14.1132 3.63072 14.1268L3.6793 14.1387M3.6411 14.0853C3.77632 13.5557 4.12535 12.6248 4.95478 11.9806C5.62478 11.455 6.46928 11.2272 7.45554 11.2933C7.56602 10.8533 7.80592 10.3377 8.23226 9.9271C8.6731 9.5025 9.31087 9.19254 10.2031 9.19254C11.6727 9.19254 12.5059 10.0832 12.8577 10.5904C13.323 10.4345 14.161 10.2617 14.966 10.6193L14.9664 10.6194C15.5772 10.8974 16.0388 11.432 16.3327 12.1945C16.7474 12.0345 17.3826 11.8861 18.0137 12.1229L18.0141 12.1231C18.6946 12.3853 19.1773 13.0158 19.447 13.983L19.4604 14.0309L19.4125 14.0445L18.7 14.2466L18.6517 14.2604L18.6382 14.212C18.4394 13.4989 18.1268 13.0689 17.7185 12.9127L17.7181 12.9125C17.3997 12.7876 17.0512 12.8402 16.7766 12.9285C16.64 12.9725 16.5234 13.0247 16.4406 13.0664C16.3993 13.0873 16.3665 13.1054 16.3439 13.1184C16.3327 13.125 16.3241 13.1302 16.3183 13.1338L16.3138 13.1366L16.3087 13.1417L16.308 13.1405C16.1987 13.2084 16.0558 13.2256 15.9289 13.1744C15.8035 13.1237 15.7103 13.0216 15.6766 12.8858C15.4706 12.1072 15.1135 11.6002 14.6285 11.3844L14.628 11.3842C14.2334 11.2033 13.7984 11.224 13.4574 11.2932C13.2873 11.3277 13.1421 11.3739 13.039 11.412C12.9875 11.431 12.9466 11.4479 12.9186 11.4602C12.9046 11.4663 12.894 11.4713 12.8868 11.4747L12.8829 11.4766L12.8825 11.477L12.8752 11.4807C12.7747 11.5314 12.6554 11.5409 12.5513 11.4971C12.4533 11.4559 12.3615 11.3811 12.3107 11.2786L12.3094 11.276L12.3095 11.2759C12.3007 11.2555 12.1451 10.9416 11.8069 10.6336C11.4698 10.3266 10.9526 10.0262 10.218 10.0262C9.45304 10.0262 8.89915 10.3116 8.55347 10.8709L8.55328 10.8712C8.4157 11.0904 8.33574 11.3155 8.29023 11.4872C8.2675 11.573 8.25344 11.6451 8.24508 11.696C8.2409 11.7215 8.23816 11.7416 8.23647 11.7554C8.23549 11.7635 8.23496 11.7686 8.23468 11.7713C8.23442 11.774 8.23438 11.7743 8.23438 11.7729V11.7765L8.23425 11.7765C8.22573 11.8968 8.16589 11.9987 8.07519 12.0735C7.98146 12.1509 7.86292 12.1761 7.75395 12.1593C6.81359 12.026 6.05662 12.1898 5.48385 12.6359L5.48384 12.6359C5.02216 12.9953 4.75193 13.4804 4.59706 13.8797C4.51972 14.0792 4.47145 14.2564 4.44254 14.3845C4.4281 14.4486 4.41851 14.5003 4.41255 14.5362C4.40958 14.5542 4.40751 14.5682 4.40621 14.5778L4.40484 14.5886C4.40477 14.5891 4.40472 14.5896 4.40469 14.5899V14.5949L4.40419 14.5949C4.38759 14.7121 4.32903 14.8143 4.23582 14.8827C4.14247 14.9512 4.02505 14.9759 3.90967 14.9592L3.90751 14.9589C3.32329 14.8484 2.85755 14.9382 2.52368 15.2103C2.07713 15.5847 1.90322 16.2291 1.83717 16.6565M3.6411 14.0853C3.6553 14.0864 3.66953 14.0876 3.68381 14.0889L3.6793 14.1387M3.6793 14.1387C3.01875 14.0788 2.45469 14.236 2.00937 14.6103C1.01484 15.4413 1 17.0284 1 17.0958C1 17.3054 1.16328 17.4701 1.37109 17.4701H17.5008H17.5508V17.4201V16.7565V16.7065H17.5008H1.82978C1.83208 16.6902 1.83454 16.6735 1.83717 16.6565M3.6793 14.1387C3.80547 13.6221 4.14688 12.6713 4.98555 12.02C5.65352 11.496 6.49961 11.2714 7.49414 11.3462C7.70195 10.4628 8.44414 9.24254 10.2031 9.24254C11.6801 9.24254 12.5039 10.1559 12.8379 10.65C13.2906 10.4928 14.1367 10.3056 14.9457 10.665C15.542 10.9364 15.9958 11.4594 16.2862 12.2128L1.83717 16.6565M32.2749 9.88892L32.3076 9.92713L32.3456 9.89425L32.9171 9.40015L32.9547 9.3676L32.9224 9.32981L26.4356 1.75355L26.4356 1.75351C25.9956 1.24084 25.3583 0.95 24.6906 0.95C23.9619 0.95 23.2642 1.3097 22.832 1.89873L22.8319 1.8988L18.6979 7.55104L18.6686 7.59107L18.7084 7.62067L19.3022 8.06237L19.3426 8.09246L19.3724 8.05177L23.5064 2.39953L23.5065 2.39935C23.7792 2.023 24.2169 1.79864 24.6832 1.79864C25.1137 1.79864 25.5155 1.98672 25.7957 2.31276L32.2749 9.88892ZM17.2539 25.0065H38.6289C38.8647 25.0065 39.05 24.819 39.05 24.5822V21.5876C39.05 21.3508 38.8647 21.1633 38.6289 21.1633H17.2539C17.0181 21.1633 16.8328 21.3508 16.8328 21.5876V24.5822C16.8328 24.819 17.0181 25.0065 17.2539 25.0065ZM38.2078 22.012V24.1579H17.675V22.012H38.2078Z" fill="white" stroke="#6C7A70" stroke-width="0.1"/>
<path d="M5.40999 5.74028L5.41003 5.73778L5.41044 5.7256C5.41091 5.71479 5.41186 5.69877 5.41378 5.67856C5.41764 5.63809 5.42539 5.58109 5.44089 5.5156C5.47201 5.38411 5.53363 5.22168 5.65471 5.08924C5.84101 4.88958 6.12755 4.78514 6.53212 4.78514C6.69508 4.78514 6.82973 4.80205 6.9311 4.83341C7.03352 4.86509 7.09487 4.90921 7.12265 4.95806L7.12263 4.95807L7.12353 4.95954C7.14343 4.99187 7.15469 5.03565 7.15754 5.08871C7.16037 5.14143 7.15473 5.20015 7.14368 5.25959C7.12152 5.37872 7.07879 5.49455 7.04738 5.5595C6.98211 5.69447 6.98063 5.85762 7.06448 5.98851C7.14032 6.11833 7.283 6.19634 7.43437 6.18764L7.43151 6.13772C8.04338 6.10723 8.69949 6.24444 8.78058 6.41977L5.40999 5.74028ZM5.40999 5.74028C5.41767 5.89382 5.34358 6.04002 5.21781 6.11859C5.09014 6.20603 4.93054 6.20447 4.79889 6.13642L4.79888 6.13641L4.79886 6.1364L4.79843 6.13619L4.7962 6.13508L4.78661 6.13057C4.77802 6.12666 4.76522 6.1211 4.74893 6.11483C4.71626 6.10226 4.66998 6.08699 4.61581 6.07624C4.50662 6.05456 4.37098 6.05226 4.24909 6.12039L4.24838 6.12079L4.24837 6.12078C4.09313 6.20425 3.96427 6.40223 3.87046 6.72041H8.61403L5.40999 5.74028ZM33.3366 1.96046C33.4399 2.12817 33.3293 2.47119 33.2629 2.6084C33.2039 2.73036 33.2113 2.87519 33.2777 2.98953C33.344 3.10388 33.4693 3.17248 33.602 3.16486M33.3366 1.96046L34.9511 3.4469C34.87 3.27158 34.2139 3.13437 33.602 3.16486M33.3366 1.96046C33.2629 1.83088 33.0344 1.76227 32.7027 1.76227C32.2898 1.76227 31.9876 1.86899 31.7885 2.08243L33.3366 1.96046ZM33.602 3.16486L33.6045 3.2148C33.9064 3.19975 34.2191 3.22614 34.4654 3.27764C34.5887 3.30342 34.6936 3.33514 34.7717 3.37019C34.8107 3.38771 34.8417 3.40552 34.8647 3.42298C34.8879 3.4407 34.9003 3.45607 34.9057 3.46789L34.9053 3.46809L34.9062 3.46955C34.9064 3.47125 34.9065 3.47419 34.9062 3.47866C34.9056 3.49067 34.9025 3.5095 34.8942 3.53565C34.8789 3.58413 34.8466 3.65448 34.7846 3.74754H30.041C30.1348 3.42936 30.2637 3.23139 30.4189 3.14792L30.4196 3.14752C30.5415 3.07939 30.6771 3.08169 30.7863 3.10337C30.8405 3.11413 30.8868 3.1294 30.9195 3.14196C30.9358 3.14823 30.9486 3.15379 30.9571 3.15771L30.9667 3.16222L30.969 3.16332L30.9694 3.16354C30.9694 3.16354 30.9694 3.16356 30.9694 3.16356L30.9695 3.16357C31.1011 3.2316 31.2607 3.23315 31.3883 3.14573C31.5141 3.06716 31.5882 2.92095 31.5805 2.7674L31.5806 2.76491L31.581 2.75274C31.5814 2.74192 31.5824 2.7259 31.5843 2.70569C31.5882 2.66522 31.5959 2.60822 31.6114 2.54273C31.6425 2.41121 31.7042 2.24874 31.8253 2.11628C32.0116 1.91668 32.2981 1.81227 32.7027 1.81227C32.8656 1.81227 33.0003 1.82919 33.1016 1.86054C33.2041 1.89222 33.2654 1.93634 33.2932 1.98519L33.2932 1.9852L33.2941 1.98667C33.314 2.019 33.3252 2.06278 33.3281 2.11584C33.3309 2.16856 33.3253 2.22729 33.3142 2.28672C33.2921 2.40586 33.2493 2.52169 33.2179 2.58663C33.1516 2.72383 33.1599 2.88621 33.2344 3.01463C33.3101 3.14506 33.4531 3.22349 33.6049 3.21477L33.602 3.16486ZM19.8437 10.0184L19.8761 10.0589L19.9154 10.0251L20.483 9.53727L20.5196 9.50583L20.4895 9.46814L16.6708 4.68869L16.6707 4.68858C16.2635 4.18174 15.6744 3.89238 15.0394 3.89238C14.4047 3.89238 13.8079 4.18152 13.4078 4.68887C13.4078 4.68889 13.4078 4.68891 13.4078 4.68894L9.58929 9.46814L9.55918 9.50583L9.59577 9.53727L10.1634 10.0251L10.2027 10.0589L10.2351 10.0184L14.0532 5.23958C14.0533 5.23949 14.0534 5.23939 14.0535 5.2393C14.3026 4.93771 14.6573 4.76227 15.0394 4.76227C15.4226 4.76227 15.7839 4.93091 16.0247 5.23857L16.025 5.23896L19.8437 10.0184ZM3.04283 7.43413L3.04277 7.43417L3.04449 7.43611C3.1275 7.53053 3.24429 7.58269 3.36217 7.58269H8.81744C8.94137 7.58269 9.05874 7.5315 9.13529 7.44355L9.1353 7.44356L9.13599 7.44273C9.55434 6.94062 9.67818 6.4776 9.48941 6.07094L9.48919 6.07048C9.35615 5.79129 9.09762 5.61693 8.80933 5.50782C8.53957 5.40573 8.23848 5.35868 7.97573 5.33729C8.01107 5.08234 7.9948 4.78057 7.83578 4.51151L7.83576 4.51148C7.60206 4.11678 7.15339 3.92287 6.52475 3.92287C5.89539 3.92287 5.39405 4.10913 5.04317 4.48772L5.0428 4.48812C4.82858 4.7244 4.70865 4.98813 4.64479 5.21391C4.41726 5.18931 4.13665 5.20483 3.86188 5.3543C3.35399 5.62495 3.05534 6.21707 2.944 7.09927C2.92717 7.22178 2.96971 7.34172 3.04283 7.43413ZM29.2134 4.46126L29.2133 4.4613L29.215 4.46325C29.298 4.55766 29.4148 4.60982 29.5327 4.60982H34.988C35.1119 4.60982 35.2293 4.55863 35.3058 4.47069L35.3065 4.46986C35.7249 3.96776 35.8487 3.50473 35.6599 3.09807L35.6597 3.09761C35.5267 2.81842 35.2682 2.64406 34.9799 2.53496C34.7101 2.43286 34.409 2.38581 34.1463 2.36442C34.1816 2.10948 34.1653 1.80771 34.0063 1.53864L34.0063 1.53861C33.7726 1.14391 33.3239 0.95 32.6953 0.95C32.0659 0.95 31.5646 1.13626 31.2137 1.51485L31.2133 1.51525C30.9991 1.75153 30.8792 2.01526 30.8153 2.24104C30.5878 2.21644 30.3072 2.23196 30.0324 2.38143C29.5245 2.65207 29.2259 3.24416 29.1145 4.12631C29.0977 4.24885 29.1402 4.36883 29.2134 4.46126ZM18.5367 29.9593L18.5834 29.9785L18.6022 29.9317L18.8897 29.2151L18.9082 29.1692L18.8624 29.1503C16.0643 27.993 13.8658 26.6922 12.3235 25.2721L12.3234 25.2721C11.0898 24.1407 10.2775 22.936 9.89733 21.6964C9.20107 19.419 10.204 17.7001 10.2674 17.5913C10.2674 17.5913 10.2674 17.5913 10.2675 17.5913L10.2675 17.5913C10.351 17.4618 10.3594 17.2898 10.2842 17.1516C10.2095 17.0143 10.0678 16.9273 9.91586 16.9273H8.82481C8.76478 16.9273 8.71377 16.9448 8.67087 16.9596L8.66845 16.9605L8.66841 16.9604L8.66533 16.9617C5.0404 18.4884 3.00695 20.4653 2.6566 22.8548L2.65659 22.8548C2.38484 24.7101 3.17797 26.4363 4.05261 27.7117C4.90269 28.9512 5.83465 29.7719 5.95924 29.8816C5.96294 29.8849 5.96593 29.8875 5.96818 29.8895L6.00744 29.9243L6.04031 29.8834L6.51212 29.2964L6.54301 29.258L6.50502 29.2266L6.50409 29.2258L6.50157 29.2236L6.49275 29.216L6.46105 29.1879C6.43393 29.1636 6.39518 29.1284 6.34659 29.0828C6.24943 28.9918 6.11299 28.8596 5.95171 28.6916C5.62908 28.3557 5.20742 27.877 4.80195 27.2983C3.98981 26.1394 3.24861 24.5883 3.48534 22.9837C3.79066 20.9544 5.60156 19.2049 8.90872 17.7972H9.23679C8.90789 18.6141 8.53069 20.1102 9.08658 21.9465C10.0296 25.0713 13.2179 27.7624 18.5367 29.9593Z" fill="white" stroke="#6C7A70" stroke-width="0.1"/>
</svg>
