<svg width="223" height="61" viewBox="0 0 223 61" fill="none" xmlns="http://www.w3.org/2000/svg">
<path fill-rule="evenodd" clip-rule="evenodd" d="M30.1566 60.7283C46.8117 60.7283 60.3133 47.2268 60.3133 30.5717C60.3133 13.9166 46.8117 0.415039 30.1566 0.415039C13.5016 0.415039 0 13.9166 0 30.5717C0 47.2268 13.5016 60.7283 30.1566 60.7283ZM30.1566 59.8624C46.3335 59.8624 59.4473 46.7486 59.4473 30.5717C59.4473 14.3948 46.3335 1.28096 30.1566 1.28096C13.9798 1.28096 0.865927 14.3948 0.865927 30.5717C0.865927 46.7486 13.9798 59.8624 30.1566 59.8624Z" fill="#DADFD9"/>
<path fill-rule="evenodd" clip-rule="evenodd" d="M29.7817 13.6326C29.8679 13.6282 29.9541 13.6282 30.0402 13.6282C29.9584 13.6282 29.8722 13.6282 29.7817 13.6326ZM29.1614 49.1528C29.674 49.0881 30.1738 48.9761 30.6563 48.8253V35.2506C30.1609 34.9835 29.6568 34.7293 29.1614 34.4794V49.1528ZM36.7824 42.4968C36.7738 42.5829 36.7609 42.6691 36.7479 42.7509C36.5368 44.0864 35.8303 45.3918 34.749 46.3999C33.8141 47.2572 32.638 48.0671 31.3025 48.5927V35.5909C32.9827 36.5257 34.5551 37.5597 35.6278 38.7272C36.3559 39.5586 36.7781 40.6184 36.8125 41.7256C36.8169 41.9841 36.8082 42.2383 36.7824 42.4968ZM28.5195 24.7776C26.7618 23.916 25.1979 23.0027 24.2415 21.9429C23.7332 21.344 23.3756 20.7194 23.199 20.0732C23.1473 19.8836 23.1085 19.6897 23.087 19.4916C22.962 18.3241 23.4359 17.1006 24.6767 15.8469C25.3272 15.2179 26.1586 14.4942 27.2098 14.1711C27.5372 14.0677 28.0197 13.9341 28.5195 13.8264V24.7776ZM28.5195 30.7228C25.9002 29.5337 23.3067 28.3231 21.9496 26.8153C20.5969 25.217 20.2996 23.4292 21.661 21.5637C21.7601 22.0893 21.941 22.5934 22.2038 23.0587C23.4402 25.2644 25.3358 26.4103 27.3865 27.5348C27.7354 27.7286 28.1188 27.9311 28.5238 28.1379L28.5195 30.7228ZM30.0919 28.922C30.2772 29.0124 30.4667 29.1072 30.6606 29.202V31.705C30.1695 31.4724 29.6697 31.244 29.1657 31.0157V28.4653C29.4629 28.6118 29.7731 28.7669 30.0919 28.922ZM37.9154 33.8547C36.3645 32.1616 33.7538 30.7443 31.2982 29.5208V32.0109C31.8453 32.278 32.3752 32.5494 32.8706 32.8251C33.9046 33.3895 34.9471 34.04 35.8518 34.8025C36.7178 35.5306 37.4889 36.375 38.0188 37.3701C38.2816 37.8569 38.4755 38.3825 38.6004 38.921C38.622 39.0244 38.6392 39.1278 38.6521 39.2312C39.406 37.4391 39.2639 35.41 37.9154 33.8547ZM40.8923 34.0443C40.7674 33.5015 40.5735 32.9802 40.3107 32.4934C39.7808 31.4982 39.0097 30.6538 38.1438 29.9258C37.5148 29.4088 36.8513 28.9349 36.1534 28.517C35.826 28.3188 35.4943 28.1293 35.1626 27.9483C35.0161 27.8665 34.861 27.7803 34.7059 27.6985C33.6547 27.1384 32.4786 26.5999 31.2939 26.0657V20.1809L30.7942 19.6811V14.9336H30.652V25.7771C30.1479 25.5487 29.6482 25.3204 29.1571 25.0878V16.9799L28.6573 16.4759V13.7963C29.0235 13.7144 29.3983 13.6627 29.7731 13.6369C29.4069 13.6455 29.0278 13.6713 28.6573 13.7144V12.2324H28.5152V13.7316C28.0456 13.7876 27.576 13.8695 27.115 13.9815C25.9992 14.2658 25.0342 14.7182 24.2286 15.3213C23.4445 15.9072 22.794 16.6611 22.3288 17.5271C21.8247 18.5782 21.5834 19.5734 21.5662 20.4953C20.9459 21.0339 20.4246 21.6801 20.0368 22.4081C19.0158 24.5406 19.0675 26.4534 19.9033 27.944C21.1397 30.1498 23.0353 31.2957 25.0859 32.4201C25.8657 32.8553 26.7962 33.3119 27.7914 33.803C28.0284 33.9194 28.2696 34.04 28.5152 34.1606V49.2131C28.4936 49.2131 28.4505 49.2131 28.4204 49.2174C28.4075 49.2174 28.3989 49.2174 28.3902 49.2174C28.3816 49.2174 28.3773 49.2174 28.373 49.2174C28.1016 49.2174 27.9077 49.2131 27.4898 49.1786L27.5415 49.1829C27.7828 49.2045 28.0154 49.2217 28.2395 49.2217H28.3515H28.5152C28.7306 49.2217 28.946 49.2174 29.1571 49.2088C31.4748 49.0968 33.6203 48.3428 35.2789 47.0676C37.5062 45.2539 38.5444 43.2291 38.7167 41.1354C40.7932 38.9383 41.349 36.5085 40.8923 34.0443Z" fill="#DADFD9"/>
<path d="M84.2849 44.3566C80.8815 44.3566 77.8271 43.5768 75.8281 42.0905L76.6337 38.5148H76.7759C78.3914 41.4874 81.0237 43.8611 84.2892 43.8611C87.8348 43.8611 89.9414 42.056 89.9414 39.0835C89.9414 31.8976 76.8147 32.9229 76.8147 24.7849C76.8147 20.6793 80.2913 18.1289 85.1681 18.1289C88.2225 18.1289 90.747 19.0853 92.6814 20.395L91.837 24.0396H91.6604C90.4326 21.3858 88.257 18.6243 85.0259 18.6243C81.7604 18.6243 79.6925 20.5371 79.6925 23.2598C79.6925 29.7737 92.9959 28.7096 92.9959 37.4162C92.9916 41.7028 89.6226 44.3566 84.2849 44.3566Z" fill="#DADFD9"/>
<path d="M101.696 42.9792C104.048 42.9792 105.625 41.7384 106.646 40.5709V33.385L102.889 34.9403C99.5548 36.3921 98.6415 38.1972 98.6415 39.8946C98.6415 41.6307 99.7314 42.9792 101.696 42.9792ZM113.173 41.5963H113.207L113.276 41.704C112.608 43.578 111.626 44.3578 110.011 44.3578C108.468 44.3578 107.025 43.3669 106.676 40.9587V40.851C105.026 42.9404 102.782 44.3534 100.042 44.3534C97.3749 44.3534 95.6172 42.8672 95.6172 40.5322C95.6172 38.2661 97.3017 36.461 101.407 34.9747L106.637 33.1007V31.6834C106.637 29.4173 105.793 26.6946 102.252 26.6946C99.0206 26.6946 96.8105 29.3828 96.8105 31.7221H96.6339C96.6339 28.5384 99.0206 25.1738 103.303 25.1738C108.076 25.1738 109.972 28.2886 109.972 32.6441V40.5365C109.972 42.2726 110.571 42.8715 111.514 42.8715C112.156 42.8715 112.72 42.5182 113.173 41.5963Z" fill="#DADFD9"/>
<path d="M143.382 32.8207V41.3852C143.382 42.445 143.77 43.5435 144.645 43.8968V44.1079H138.747V43.8968C139.626 43.5435 139.975 42.5182 139.975 41.3852V32.0409C139.975 28.323 138.29 26.6601 136.08 26.6601C133.974 26.6601 132.431 27.8621 131.272 29.2794V41.3852C131.272 42.445 131.66 43.5435 132.535 43.8968V44.1079H126.637V43.8968C127.516 43.5435 127.865 42.5182 127.865 41.3852V32.0409C127.865 28.323 126.18 26.6601 123.97 26.6601C121.863 26.6601 120.248 27.582 119.197 28.9606V41.3852C119.197 42.445 119.546 43.5435 120.425 43.8968V44.1079H114.561V43.8968C115.44 43.5435 115.789 42.5182 115.789 41.3852V30.4125C115.789 28.8185 115.19 28.1464 114.281 27.3666V27.2245C115.578 26.729 117.512 26.0225 118.878 25.5271H119.02L119.055 28.7495C120.351 26.7334 122.811 25.1738 125.655 25.1738C129.622 25.1738 130.85 28.1809 131.13 29.0683C132.358 27.0134 134.852 25.1738 137.73 25.1738C142.469 25.1738 143.382 29.3871 143.382 32.8207Z" fill="#DADFD9"/>
<path d="M156.038 43.7934C159.024 43.7934 161.548 41.2085 161.548 35.0523C161.548 29.7447 159.584 26.6989 156.633 26.6989C154.492 26.6989 152.842 27.6897 151.791 29.176V41.5618C152.807 42.9404 154.565 43.7934 156.038 43.7934ZM158.037 25.2083C162.108 25.2083 165.266 28.5686 165.266 34.7636C165.266 40.8165 161.337 44.3534 156.525 44.3534C154.561 44.3534 152.385 43.5392 150.735 41.7686L148.594 44.1036H148.383V21.6972C148.383 20.1032 147.784 19.4311 146.875 18.6514V18.4747C148.211 17.9793 150.244 17.2728 151.614 16.7773H151.756V28.8831C153.053 26.7678 155.267 25.2083 158.037 25.2083Z" fill="#DADFD9"/>
<path d="M184.772 32.8199V41.3844C184.772 42.4441 185.16 43.5427 186.035 43.896V44.1071H180.171V43.896C181.05 43.5427 181.399 42.5174 181.399 41.3844V32.0401C181.399 28.3222 179.68 26.6593 177.47 26.6593C175.363 26.6593 173.748 27.5812 172.697 28.9598V41.3844C172.697 42.4441 173.085 43.5427 173.959 43.896V44.1071H168.061V43.896C168.94 43.5427 169.289 42.5174 169.289 41.3844V21.705C169.289 20.111 168.69 19.4389 167.781 18.6592V18.4825L172.412 16.7852H172.692V28.5721C173.989 26.6593 176.376 25.173 179.15 25.173C183.894 25.173 184.772 29.3863 184.772 32.8199Z" fill="#DADFD9"/>
<path d="M194.356 42.9792C196.708 42.9792 198.285 41.7384 199.306 40.5709V33.385L195.549 34.9403C192.215 36.3921 191.302 38.1972 191.302 39.8946C191.302 41.6307 192.392 42.9792 194.356 42.9792ZM205.833 41.5963H205.867L205.936 41.704C205.268 43.578 204.286 44.3578 202.671 44.3578C201.128 44.3578 199.685 43.3669 199.336 40.9587V40.851C197.686 42.9404 195.442 44.3534 192.702 44.3534C190.035 44.3534 188.277 42.8672 188.277 40.5322C188.277 38.2661 189.962 36.461 194.067 34.9747L199.297 33.1007V31.6834C199.297 29.4173 198.453 26.6946 194.912 26.6946C191.681 26.6946 189.471 29.3828 189.471 31.7221H189.303C189.303 28.5384 191.689 25.1738 195.972 25.1738C200.745 25.1738 202.641 28.2886 202.641 32.6441V40.5365C202.641 42.2726 203.239 42.8715 204.183 42.8715C204.816 42.8715 205.38 42.5182 205.833 41.5963Z" fill="#DADFD9"/>
<path d="M218.326 25.9875V25.7764H222.643V25.9875C221.273 26.8017 220.816 27.7236 220.433 28.5723L213.553 44.1116H213.238L206.746 29.0333C206.078 27.547 205.656 26.7328 204.57 25.9875V25.7764H211.343V25.9875C210.184 26.414 209.447 27.2971 210.253 29.1367L214.849 39.9672L219.657 28.96C220.256 27.6504 219.588 26.7328 218.326 25.9875Z" fill="#DADFD9"/>
</svg>
