<svg width="40" height="35" viewBox="0 0 40 35" fill="none" xmlns="http://www.w3.org/2000/svg">
<path d="M37.5926 10.9685L20.2179 1.94727C19.6401 1.64727 18.9525 1.64727 18.3747 1.94727L1 10.9685L18.3747 19.9898C18.9525 20.2898 19.6401 20.2898 20.2179 19.9898L37.5926 10.9685ZM37.5926 10.9685V24.7622M37.5926 24.7622L36.3813 31.0513C36.2583 31.6899 36.4535 32.3484 36.9046 32.8168L37.5926 33.5313L38.2806 32.8168C38.7317 32.3484 38.9268 31.6899 38.8038 31.0513L37.5926 24.7622Z" stroke="white" stroke-width="1.5" stroke-miterlimit="10" stroke-linecap="round" stroke-linejoin="round"/>
<path d="M5.75 13.9375L5.75 24.5436C5.75 25.555 6.25817 26.4971 7.15582 26.9633C9.30419 28.079 13.6979 29.9688 18.8125 29.9688C23.9787 29.9688 28.4093 27.9278 30.5335 26.7518C31.3938 26.2754 31.875 25.3549 31.875 24.3715V14.5312" stroke="white" stroke-width="1.5" stroke-miterlimit="10" stroke-linecap="round" stroke-linejoin="round"/>
</svg>
