<svg width="23" height="23" viewBox="0 0 23 23" fill="none" xmlns="http://www.w3.org/2000/svg">
<path d="M11.4834 1.01661C9.58218 1.0168 7.71681 1.53401 6.08695 2.51287C4.45709 3.49173 3.1241 4.8954 2.23068 6.57361C1.33725 8.25183 0.917024 10.1414 1.01497 12.0401C1.11292 13.9388 1.72536 15.7751 2.78673 17.3525L1 21.9834L5.76766 20.2787C7.135 21.1712 8.69192 21.732 10.3143 21.9164C11.9367 22.1007 13.5798 21.9035 15.1125 21.3405C16.6452 20.7775 18.0253 19.8643 19.1426 18.6736C20.2599 17.4829 21.0837 16.0476 21.5482 14.4823C22.0127 12.9169 22.1051 11.2646 21.8181 9.65719C21.531 8.04976 20.8725 6.5316 19.8949 5.22372C18.9174 3.91583 17.6478 2.85438 16.1874 2.12396C14.727 1.39354 13.1162 1.01435 11.4834 1.01661Z" stroke="white" stroke-linecap="round" stroke-linejoin="round"/>
<path d="M9.20367 13.779C10.3887 14.9641 13.005 16.5138 14.2175 16.5138C14.7493 16.5193 15.2667 16.3408 15.682 16.0085C16.0974 15.6763 16.3851 15.2107 16.4965 14.6906V13.779C16.4965 13.779 15.3752 13.232 14.6733 12.8674C13.9713 12.5028 12.8501 13.779 12.8501 13.779C11.9969 13.5011 11.2178 13.0336 10.5711 12.4116C9.94909 11.7649 9.4816 10.9857 9.20367 10.1326C9.20367 10.1326 10.4799 9.01134 10.1153 8.3094C9.75063 7.60747 9.20367 6.48621 9.20367 6.48621H8.29207C7.77199 6.5976 7.3064 6.88532 6.97414 7.30064C6.64188 7.71596 6.46338 8.23336 6.46887 8.7652C6.46887 9.97763 8.01859 12.5939 9.20367 13.779Z" stroke="white" stroke-linecap="round" stroke-linejoin="round"/>
</svg>
